<?xml version="1.0" encoding="utf-8"?>
<svg xmlns="http://www.w3.org/2000/svg" viewBox="0 0 816 1056" height="1056" width="816" id="svg2" version="1.1">
  <defs id="defs6">
    <clipPath id="clipPath18" clipPathUnits="userSpaceOnUse">
      <path style="clip-rule:evenodd" id="path16" d="M 9.12e-6,0 H 612.00001 V 792 H 9.12e-6 Z"/>
    </clipPath>
  </defs>
  <g transform="matrix(17.524, 0, 0, -14.4092, -1470.06, 9617.15)" id="g10" style="">
    <g id="g12">
      <g clip-path="url(#clipPath18)" id="g14"/>
    </g>
    <path id="path20" style="fill:#121214;fill-opacity:1;fill-rule:evenodd;stroke:none" d="m 106.87,662.7 c 1.35,0 2.03,-0.87 2.03,-2.6 0,-0.87 -0.68,-1.74 -2.03,-1.74 -1.35,0 -2.02,0.87 -2.02,1.74 0,1.73 0.67,2.6 2.02,2.6 z m 0,-0.87 c 0.68,0 1.35,-0.86 1.35,-1.73 0,0 -0.67,-0.87 -1.35,-0.87 -0.67,0 -1.35,0.87 -1.35,0.87 0,0.87 0.68,1.73 1.35,1.73 z"/>
    <path id="path22" style="fill:none;stroke:#121214;stroke-width:0.14;stroke-linecap:butt;stroke-linejoin:round;stroke-miterlimit:10;stroke-dasharray:none;stroke-opacity:1" d="m 106.87,662.7 c 1.35,0 2.03,-0.87 2.03,-2.6 0,-0.87 -0.68,-1.74 -2.03,-1.74 -1.35,0 -2.02,0.87 -2.02,1.74 0,1.73 0.67,2.6 2.02,2.6 z m 0,-0.87 c 0.68,0 1.35,-0.86 1.35,-1.73 0,0 -0.67,-0.87 -1.35,-0.87 -0.67,0 -1.35,0.87 -1.35,0.87 0,0.87 0.68,1.73 1.35,1.73 z"/>
    <path id="path24" style="fill:#340e70;fill-opacity:1;fill-rule:evenodd;stroke:none" d="m 106.86,660.98 c 0.68,0 0.68,0 0.68,-2.27 0,0 0,0 -0.68,0 -0.68,0 -0.68,0 -0.68,0 0,2.27 0,2.27 0.68,2.27 z m 0,0 c 0,0 0.68,0 0.68,-2.27 0,0 -0.68,0 -0.68,0 0,0 -0.68,0 -0.68,0 0,2.27 0.68,2.27 0.68,2.27 z"/>
    <path id="path26" style="fill:none;stroke:#340e70;stroke-width:0.14;stroke-linecap:butt;stroke-linejoin:round;stroke-miterlimit:10;stroke-dasharray:none;stroke-opacity:1" d="m 106.86,660.98 c 0.68,0 0.68,0 0.68,-2.27 0,0 0,0 -0.68,0 -0.68,0 -0.68,0 -0.68,0 0,2.27 0,2.27 0.68,2.27 z m 0,0 c 0,0 0.68,0 0.68,-2.27 0,0 -0.68,0 -0.68,0 0,0 -0.68,0 -0.68,0 0,2.27 0.68,2.27 0.68,2.27 z"/>
    <path id="path28" style="fill:#121214;fill-opacity:1;fill-rule:evenodd;stroke:none" d="m 103.47,667.05 h 6.78 c 0.67,0 1.35,-0.87 1.35,-1.73 v -1.74 h 0.68 v -4.34 h 0.67 v -0.86 h -0.67 v -6.07 h -1.36 v -1.74 h 0.68 v -0.87 h -1.35 v -0.86 l 9.48,-22.56 h -0.68 l 4.74,-12.14 1.36,-4.34 v -0.86 l -0.68,0.86 -1.36,3.47 h -0.67 l -4.74,12.15 h -0.68 l -8.81,20.81 v -23.41 h -0.67 v -6.08 l 1.35,-0.86 -1.35,-4.34 v -1.74 -3.46 l -0.68,-0.87 v 0.87 3.46 h -0.68 v 1.74 l -1.35,4.34 1.35,0.86 v 6.08 h -0.67 v 23.41 l -8.809,-20.81 h -0.677 l -4.741,-12.15 h -0.677 l -1.354,-3.47 -0.678,-0.86 v 0.86 l 1.355,4.34 4.741,12.14 h -0.678 l 10.158,23.42 h -2.03 v 0.87 h 1.35 v 1.74 h -2.03 v 11.27 h 0.68 v 1.74 c 0,0.86 0.68,1.73 1.35,1.73 z m 3.39,-50.31 v 0 h -0.68 1.36 z m -0.68,-0.86 h -0.67 v -0.87 h 2.7 v 0.87 z m -0.67,-0.87 1.35,-3.47 1.35,3.47 z m 3.38,48.57 v -8.67 h -4.06 v 8.67 h -1.36 v 1.74 h 6.78 v -1.74 z"/>
    <path id="path30" style="fill:none;stroke:#121214;stroke-width:0.14;stroke-linecap:butt;stroke-linejoin:round;stroke-miterlimit:10;stroke-dasharray:none;stroke-opacity:1" d="m 103.47,667.05 h 6.78 c 0.67,0 1.35,-0.87 1.35,-1.73 v -1.74 h 0.68 v -4.34 h 0.67 v -0.86 h -0.67 v -6.07 h -1.36 v -1.74 h 0.68 v -0.87 h -1.35 v -0.86 l 9.48,-22.56 h -0.68 l 4.74,-12.14 1.36,-4.34 v -0.86 l -0.68,0.86 -1.36,3.47 h -0.67 l -4.74,12.15 h -0.68 l -8.81,20.81 v -23.41 h -0.67 v -6.08 l 1.35,-0.86 -1.35,-4.34 v -1.74 -3.46 l -0.68,-0.87 v 0.87 3.46 h -0.68 v 1.74 l -1.35,4.34 1.35,0.86 v 6.08 h -0.67 v 23.41 l -8.809,-20.81 h -0.677 l -4.741,-12.15 h -0.677 l -1.354,-3.47 -0.678,-0.86 v 0.86 l 1.355,4.34 4.741,12.14 h -0.678 l 10.158,23.42 h -2.03 v 0.87 h 1.35 v 1.74 h -2.03 v 11.27 h 0.68 v 1.74 c 0,0.86 0.68,1.73 1.35,1.73 z m 3.39,-50.31 v 0 h -0.68 1.36 z m -0.68,-0.86 h -0.67 v -0.87 h 2.7 v 0.87 z m -0.67,-0.87 1.35,-3.47 1.35,3.47 z m 3.38,48.57 v -8.67 h -4.06 v 8.67 h -1.36 v 1.74 h 6.78 v -1.74 z"/>
    <path id="path32" style="fill:#340e70;fill-opacity:1;fill-rule:evenodd;stroke:none" d="m 94.006,607.19 h -6.094 v -1.73 h 6.094 c 0.678,0 1.355,0 2.032,-0.87 0,0 0,-0.87 0,-1.73 v -0.87 c 0,-0.86 0,-0.86 0,-1.73 -0.677,0 -1.354,0 -2.032,0 h -5.417 c -1.355,0 -2.032,0 -2.032,0 -0.677,0.87 -0.677,0.87 -0.677,1.73 v 0 l 2.032,0.87 v -0.87 h 6.772 v 1.73 h -6.095 c -0.677,0 -1.355,0 -2.032,0 0,0.87 0,0.87 0,1.74 v 0.86 c 0,0.87 0,1.73 0,1.73 0.677,0 1.355,0.87 2.032,0.87 h 5.417 c 0.678,0 1.355,-0.87 1.355,-0.87 0.677,0 0.677,-0.86 0.677,-1.73 v 0 h -2.032 z m 6.774,-6.93 v 8.66 h 1.35 l 4.74,-5.2 4.07,5.2 h 2.03 v -8.66 h -2.03 v 5.2 c 0,0 0,0 0,0 0,0 0,0.86 0,0.86 0,0 0,-0.86 -0.68,-0.86 0,0 0,0 0,0 l -3.39,-4.33 h -0.67 l -3.39,4.33 c 0,0 0,0 0,0 0,0.86 -0.68,0.86 -0.68,0.86 0,0 0,-0.86 0,-0.86 0,0 0,0 0,0 v -5.2 z m 16.25,0 v 8.66 h 1.36 l 6.77,-5.2 c 0,0 0.67,-0.86 0.67,-0.86 0,0 0,0 0.68,0 0,0 0,0.86 -0.68,0.86 0,0 0,0 0,0 v 5.2 h 2.04 v -8.66 h -1.36 l -6.77,5.2 c 0,0 0,0 0,0 -0.68,0 -0.68,0 -0.68,0.86 0,-0.86 0,-0.86 0,-0.86 0,-0.87 0,-0.87 0,-0.87 v -4.33 z"/>
    <path id="path34" style="fill:none;stroke:#340e70;stroke-width:0.14;stroke-linecap:butt;stroke-linejoin:round;stroke-miterlimit:10;stroke-dasharray:none;stroke-opacity:1" d="m 94.006,607.19 h -6.094 v -1.73 h 6.094 c 0.678,0 1.355,0 2.032,-0.87 0,0 0,-0.87 0,-1.73 v -0.87 c 0,-0.86 0,-0.86 0,-1.73 -0.677,0 -1.354,0 -2.032,0 h -5.417 c -1.355,0 -2.032,0 -2.032,0 -0.677,0.87 -0.677,0.87 -0.677,1.73 v 0 l 2.032,0.87 v -0.87 h 6.772 v 1.73 h -6.095 c -0.677,0 -1.355,0 -2.032,0 0,0.87 0,0.87 0,1.74 v 0.86 c 0,0.87 0,1.73 0,1.73 0.677,0 1.355,0.87 2.032,0.87 h 5.417 c 0.678,0 1.355,-0.87 1.355,-0.87 0.677,0 0.677,-0.86 0.677,-1.73 v 0 h -2.032 z m 6.774,-6.93 v 8.66 h 1.35 l 4.74,-5.2 4.07,5.2 h 2.03 v -8.66 h -2.03 v 5.2 c 0,0 0,0 0,0 0,0 0,0.86 0,0.86 0,0 0,-0.86 -0.68,-0.86 0,0 0,0 0,0 l -3.39,-4.33 h -0.67 l -3.39,4.33 c 0,0 0,0 0,0 0,0.86 -0.68,0.86 -0.68,0.86 0,0 0,-0.86 0,-0.86 0,0 0,0 0,0 v -5.2 z m 16.25,0 v 8.66 h 1.36 l 6.77,-5.2 c 0,0 0.67,-0.86 0.67,-0.86 0,0 0,0 0.68,0 0,0 0,0.86 -0.68,0.86 0,0 0,0 0,0 v 5.2 h 2.04 v -8.66 h -1.36 l -6.77,5.2 c 0,0 0,0 0,0 -0.68,0 -0.68,0 -0.68,0.86 0,-0.86 0,-0.86 0,-0.86 0,-0.87 0,-0.87 0,-0.87 v -4.33 z"/>
    <path id="path36" style="fill:#340e70;fill-opacity:1;fill-rule:evenodd;stroke:none" d="m 87.908,596.79 -0.677,1.74 -0.677,-1.74 z m -1.354,0 -0.677,-1.74 H 85.2 l 2.031,4.35 h 0.677 l 1.353,-4.35 h -0.676 l -0.677,1.74 z m 4.061,0 h 0.677 c 0,-0.87 0,-0.87 0,-0.87 0,0 0.677,0 0.677,0 0,0 0,0 0.677,0 0,0 0,0 0,0.87 0,0 0,0 0,0 -0.677,0 -0.677,0 -0.677,0 0,0 0,0 0,0 -0.677,0.87 -0.677,0.87 -0.677,0.87 0,0 -0.677,0 -0.677,0 0,0 0,0.87 0,0.87 0,0 0,0 0.677,0.87 0,0 0,0 0.677,0 0,0 0.677,0 0.677,0 0,-0.87 0,-0.87 0,-0.87 v 0 c 0,0 0,0 -0.677,0 0,0 0,0 0,0 0,0 0,0 -0.677,0 0,0 0,0 0,0 0,0 0,0 0,0 0,-0.87 0,-0.87 0,-0.87 0,0 0.677,0 0.677,0 0,0 0,0 0,0 0.677,0 0.677,0 0.677,0 0.677,-0.87 0.677,-0.87 0.677,-0.87 0,-0.87 -0.677,-0.87 -0.677,-0.87 0,-0.87 -0.677,-0.87 -0.677,-0.87 -0.677,0 -0.677,0 -0.677,0.87 -0.677,0 -0.677,0 -0.677,0.87 z m 4.062,0 h 0.677 c 0,-0.87 0,-0.87 0,-0.87 0.677,0 0.677,0 0.677,0 0,0 0.677,0 0.677,0 0,0 0,0 0,0.87 0,0 0,0 0,0 0,0 0,0 -0.677,0 0,0 0,0 0,0 -0.677,0.87 -0.677,0.87 -0.677,0.87 0,0 0,0 0,0 0,0 0,0.87 0,0.87 0,0 0,0 0,0.87 0,0 0.677,0 0.677,0 0.677,0 0.677,0 0.677,0 0.677,-0.87 0.677,-0.87 0.677,-0.87 h -0.677 c 0,0 0,0 0,0 0,0 -0.677,0 -0.677,0 0,0 0,0 0,0 -0.677,0 -0.677,0 -0.677,0 0,0 0,0 0,0 0,-0.87 0.677,-0.87 0.677,-0.87 0,0 0,0 0,0 0,0 0.677,0 0.677,0 0,0 0,0 0.677,0 0,-0.87 0,-0.87 0,-0.87 0,-0.87 0,-0.87 -0.677,-0.87 0,-0.87 0,-0.87 -0.677,-0.87 0,0 -0.677,0 -0.677,0.87 0,0 -0.677,0 -0.677,0.87 z m 5.413,0.87 c 0,-0.87 0,-0.87 0,-0.87 0,0 0,0 0,-0.87 0,0 0.68,0 0.68,0 0,0 0,0 0.68,0 0,0 0.67,0 0.67,0 0.68,0.87 0.68,0.87 0.68,1.74 0,0 0,0 0,0 0,0 -0.68,0.87 -0.68,0.87 0,0 0,0 0,0 -0.67,0 -0.67,0 -0.67,0 -0.68,0 -0.68,0 -0.68,0 0,0 -0.68,0 -0.68,0 0,0 0,-0.87 0,-0.87 0,0 0,0 0,0 z m -0.675,0 c 0,0 0,0 0,0.87 0,0 0,0 0.675,0 0,0 0,0.87 0.68,0.87 0,0 0,0 0.68,0 0,0 0.67,0 0.67,0 0,0 0.68,-0.87 0.68,-0.87 0,0 0,0 0.68,0 0,-0.87 0,-0.87 0,-0.87 0,-0.87 0,-0.87 0,-0.87 -0.68,0 -0.68,-0.87 -0.68,-0.87 0,0 -0.68,0 -0.68,0 0,-0.87 -0.67,-0.87 -0.67,-0.87 -0.68,0 -0.68,0 -0.68,0.87 -0.68,0 -0.68,0 -0.68,0 -0.675,0 -0.675,0.87 -0.675,0.87 0,0 0,0 0,0.87 z m 9.475,-0.87 c 0,-0.87 0,-0.87 -0.67,-0.87 0,-0.87 -0.68,-0.87 -0.68,-0.87 -0.68,0 -0.68,0 -1.36,0.87 0,0 0,0 -0.67,0 0,0 0,0.87 0,0.87 0,0 0,0 0,0.87 0,0 0,0 0,0.87 0,0 0,0 0.67,0 0,0 0,0.87 0,0.87 0.68,0 0.68,0 1.36,0 0,0 0.68,0 0.68,0 0.67,-0.87 0.67,-0.87 0.67,-0.87 h -0.67 c 0,0 0,0 0,0 -0.68,0 -0.68,0 -0.68,0 -0.68,0 -0.68,0 -0.68,0 0,0 -0.68,0 -0.68,0 0,0 0,-0.87 0,-0.87 0,0 0,0 0,0 0,-0.87 0,-0.87 0,-0.87 0,0 0,0 0,-0.87 0,0 0.68,0 0.68,0 0,0 0,0 0.68,0 0,0 0,0 0,0 0.68,0 0.68,0 0.68,0.87 z m 2.71,-1.74 h -0.68 v 4.35 h 0.68 z m 4.06,1.74 v 1.74 l -0.68,-1.74 z m -1.35,0 v -1.74 h -0.68 l 1.35,4.35 h 0.68 l 1.36,-4.35 h -0.68 v 1.74 z m 5.41,-1.74 h -0.67 v 3.48 h -0.68 v 0.87 h 2.03 v -0.87 h -0.68 z m 4.74,0 h -2.03 v 4.35 h 2.03 v -0.87 h -1.35 v -0.87 h 1.35 v -0.87 h -1.35 v -0.87 h 1.35 z m 2.03,1.74 h 0.68 c 0,-0.87 0,-0.87 0,-0.87 0,0 0.68,0 0.68,0 0,0 0,0 0.67,0 0,0 0,0 0,0.87 0,0 0,0 0,0 0,0 -0.67,0 -0.67,0 0,0 0,0 0,0 -0.68,0.87 -0.68,0.87 -0.68,0.87 0,0 0,0 -0.68,0 0,0 0,0.87 0,0.87 0,0 0.68,0 0.68,0.87 0,0 0.68,0 0.68,0 0,0 0.67,0 0.67,0 0,-0.87 0.68,-0.87 0.68,-0.87 h -0.68 c 0,0 0,0 0,0 -0.67,0 -0.67,0 -0.67,0 0,0 0,0 -0.68,0 0,0 0,0 0,0 0,0 0,0 0,0 0,-0.87 0,-0.87 0,-0.87 0,0 0.68,0 0.68,0 0,0 0,0 0,0 0.67,0 0.67,0 0.67,0 0.68,-0.87 0.68,-0.87 0.68,-0.87 0,-0.87 0,-0.87 -0.68,-0.87 0,-0.87 -0.67,-0.87 -0.67,-0.87 -0.68,0 -0.68,0 -0.68,0.87 -0.68,0 -0.68,0 -0.68,0.87 z"/>
  </g>
</svg>